<?xml version="1.0" encoding="UTF-8"?>
<svg id="_ÎÓÈ_1" data-name=" ÎÓÈ 1" xmlns="http://www.w3.org/2000/svg" version="1.1" viewBox="0 0 200 200">
  <defs>
    <style>
      .cls-1 {
        fill: currentColor;
      }
    </style>
  </defs>
  <polygon class="cls-1" points="138.1 168.9 126.2 168.9 88.1 77.2 88 77.1 88 77.2 49.8 168.9 37.9 168.9 88 48.5 138.1 168.9"/>
  <polygon class="cls-1" points="94 5.2 94 5.1 94 5 82 5.1 82 5.2 3.1 194.7 63 194.7 94 120.3 88.1 106 56.5 181.8 56.5 181.9 20.4 181.9 20.4 181.8 88 19.5 88 19.4 88.1 19.5 150.2 168.9 162.2 168.9 94 5.2"/>
  <polygon class="cls-1" points="118 5.2 118 5.1 106.1 5.1 106.1 5.1 179.6 181.8 179.6 181.9 131.6 181.9 137 194.7 196.9 194.7 118 5.2"/>
  <polygon class="cls-1" points="138.1 168.9 126.2 168.9 88.1 77.2 88 77.1 88 77.2 49.8 168.9 37.9 168.9 88 48.5 138.1 168.9"/>
  <polygon class="cls-1" points="94 5.2 94 5.1 94 5 82 5.1 82 5.2 3.1 194.7 63 194.7 94 120.3 88.1 106 56.5 181.8 56.5 181.9 20.4 181.9 20.4 181.8 88 19.5 88 19.4 88.1 19.5 150.2 168.9 162.2 168.9 94 5.2"/>
  <polygon class="cls-1" points="118 5.2 118 5.1 106.1 5.1 106.1 5.1 179.6 181.8 179.6 181.9 131.6 181.9 137 194.7 196.9 194.7 118 5.2"/>
</svg>
